<svg xmlns="http://www.w3.org/2000/svg" xml:space="preserve" id="_x37_7f70391-3bbf-4c26-86eb-d719621690b3" x="0" y="0" version="1.1" viewBox="0 0 30 30"><style>.st0{fill:#ca2027}.st1{fill:#fff}</style><path d="M15 28.5c2.9 0 5.6-.9 7.8-2.5H7.2c2.2 1.6 4.9 2.5 7.8 2.5z" class="st0"/><path d="M4.3 23.2c.8 1.1 1.8 2.1 2.9 2.9h15.6c1.1-.8 2.1-1.8 2.9-2.9H4.3z" class="st1"/><path d="M4.3 23.2h21.5c.7-.9 1.2-1.8 1.7-2.9H2.6c.4 1 1 2 1.7 2.9z" class="st0"/><path d="M15 1.5c-2.3 0-4.5.6-6.4 1.6h12.9c-2-1-4.2-1.6-6.5-1.6z" class="st1"/><path d="M5 6h20c-1-1.1-2.2-2.1-3.6-2.9H8.6C7.2 3.9 6 4.8 5 6z" class="st0"/><path d="M3 8.8h24c-.5-1-1.2-2-2-2.9H5c-.8 1-1.5 1.9-2 2.9z" class="st1"/><path d="M1.9 11.7h26.2c-.3-1-.6-2-1.1-2.9H3c-.5.9-.8 1.9-1.1 2.9z" class="st0"/><path d="M1.5 14.6h27c0-1-.2-1.9-.4-2.9H1.9c-.2.9-.3 1.9-.4 2.9z" class="st1"/><path d="M1.5 15c0 .8.1 1.6.2 2.4h26.5c.1-.8.2-1.6.2-2.4v-.4h-27c.1.1.1.3.1.4z" class="st0"/><path d="M2.6 20.3h24.8c.4-.9.7-1.9.8-2.9H1.7c.2 1 .5 2 .9 2.9z" class="st1"/><path fill="#2b3560" d="M18.4 16.4V1.9c-1.1-.3-2.2-.4-3.4-.4-7.5 0-13.5 6-13.5 13.5 0 .5 0 1 .1 1.4h16.8z"/><path d="m2.7 13.7.2.7h.8l-.6.5.3.8-.7-.5-.6.5.2-.8-.6-.5h.8zM5 8.8l.3.7h.8l-.7.5.3.7-.7-.4-.6.4.2-.7-.6-.5h.8zM5 12.1l.3.8h.8l-.7.4.3.8-.7-.5-.6.5.2-.8-.6-.4h.8zM7.4 7l.2.8h.8l-.6.4.2.8-.6-.5-.7.5.3-.8-.7-.4h.8zM7.4 10.3l.2.8h.8l-.6.5.2.7-.6-.4-.7.4.3-.7-.7-.5h.8zM7.4 13.7l.2.7h.8l-.6.5.2.8-.6-.5-.7.5.3-.8-.7-.5h.8zM9.7 5.4l.3.8h.8l-.7.4.3.8-.7-.5-.6.5.2-.8-.6-.4h.8zM9.7 8.8l.3.7h.8l-.7.5.3.7-.7-.4-.6.4.2-.7-.6-.5h.8zM9.7 12.1l.3.8h.8l-.7.4.3.8-.7-.5-.6.5.2-.8-.6-.4h.8zM12.1 3.7l.2.7h.8l-.6.5.2.7-.6-.4-.7.4.3-.7-.7-.5h.8zM12.1 7l.2.8h.8l-.6.4.2.8-.6-.5-.7.5.3-.8-.7-.4h.8zM12.1 10.3l.2.8h.8l-.6.5.2.7-.6-.4-.7.4.3-.7-.7-.5h.8zM12.1 13.7l.2.7h.8l-.6.5.2.8-.6-.5-.7.5.3-.8-.7-.5h.8zM14.4 2.1l.2.7h.8l-.6.5.2.8-.6-.5-.6.5.2-.8-.6-.5h.8zM14.4 5.4l.2.8h.8l-.6.4.2.8-.6-.5-.6.5.2-.8-.6-.4h.8zM14.4 8.8l.2.7h.8l-.6.5.2.7-.6-.4-.6.4.2-.7-.6-.5h.8zM14.4 12.1l.2.8h.8l-.6.4.2.8-.6-.5-.6.5.2-.8-.6-.4h.8zM16.8 3.7l.2.7h.8l-.6.5.2.7-.6-.4-.7.4.3-.7-.7-.5h.8zM16.8 7l.2.8h.8l-.6.4.2.8-.6-.5-.7.5.3-.8-.7-.4h.8zM16.8 10.3l.2.8h.8l-.6.5.2.7-.6-.4-.7.4.3-.7-.7-.5h.8zM16.8 13.7l.2.7h.8l-.6.5.2.8-.6-.5-.7.5.3-.8-.7-.5h.8zM11.4 2.3l.6-.5.6.5-.2-.6c-.3.1-.7.1-1 .2v.4zM16.1 2.3l.6-.5.6.5-.2-.6c-.3 0-.6-.1-.9-.1l-.1.7zM3.7 7.8h-.1c0 .1-.1.1-.1.2l.2-.2zM3.4 9l-.2-.5c-.1.1-.1.2-.2.3l.4.2zM5.3 6.2l-.1-.4c-.3.2-.5.5-.7.7l.1.1-.2.8.6-.5.6.5-.2-.8.6-.5h-.7zM9.5 2.8h-.3c-.1.1-.2.1-.3.2l.4.3-.2.8.6-.5.6.5-.2-.8.6-.5H10l-.1-.3c-.1 0-.2.1-.3.1l-.1.2zM7.1 4.4h-.5l-.1.1.5.4-.3.7.6-.5.7.5-.2-.7.6-.5h-.8l-.2-.6-.1.1-.2.5zM2.3 11.6l-.3.8.6-.5.7.5-.3-.8.6-.5h-.7l-.2-.8-.3.8h-.3c0 .1 0 .2-.1.3l.3.2z" class="st1"/><circle cx="15" cy="15" r="13.5" fill="none" stroke="#fff" stroke-miterlimit="10"/></svg>