<svg xmlns="http://www.w3.org/2000/svg" fill="currentColor" viewBox="0 0 103 103"><circle cx="51.5" cy="51.5" r="51.5" fill="#cf102d"/><g fill="#fff" stroke="#fff"><path d="M78.872 62.527a5.266 5.266 0 0 0-6.428-2.262l-12.791 4.4a5.415 5.415 0 0 0-5.338-6.389h-8.786a1.363 1.363 0 0 1-.667-.174l-7.167-4.032a9.505 9.505 0 0 0-4.657-1.221h-7.681A1.356 1.356 0 0 0 24 54.205a1.357 1.357 0 0 0 1.357 1.357h7.681a6.786 6.786 0 0 1 3.326.871l7.168 4.032a4.076 4.076 0 0 0 2 .524h8.684a2.783 2.783 0 0 1 2.79 2.344 2.719 2.719 0 0 1-2.688 3.082H40.559a1.38 1.38 0 0 0-1.364 1.074 1.358 1.358 0 0 0 1.328 1.64h13.793a5.41 5.41 0 0 0 2.543-.636l16.5-5.67a2.519 2.519 0 1 1 1.9 4.665.417.417 0 0 0-.042.018L49.852 78.675a14.582 14.582 0 0 1-13.543-.77l-7.1-4.257a12.559 12.559 0 0 0-3.524-1.329 1.361 1.361 0 0 0-1.683 1.318 1.356 1.356 0 0 0 1.052 1.32 10 10 0 0 1 2.759 1.018l7.1 4.257a17.3 17.3 0 0 0 16.056.916l25.319-11.153a5.263 5.263 0 0 0 2.584-7.468Zm-46.11-33.339a1.356 1.356 0 0 0 1.683-.921 7.362 7.362 0 0 1 7.076-5.552c3.87 0 6.585 3.436 7.5 6.636a1.357 1.357 0 0 0 2.615 0c.018-.066 1.9-6.636 7.5-6.636 4.245 0 7.448 3.525 7.448 8.2 0 6.035-5.9 10.386-16.094 19.175-6.21-5.334-11.144-9.087-13.948-12.76a1.357 1.357 0 1 0-2.157 1.646c3.16 4.14 8.5 8.107 15.218 13.933a1.357 1.357 0 0 0 1.777 0c11.07-9.594 17.917-14.449 17.917-21.993C69.297 24.947 65.071 20 59.136 20c-3.9 0-6.884 2.248-8.807 5.62-1.919-3.365-4.9-5.62-8.8-5.62a10.021 10.021 0 0 0-9.68 7.5 1.357 1.357 0 0 0 .913 1.688Z"/><path d="M33.015 34.668a1.357 1.357 0 1 0-1.357-1.357 1.358 1.358 0 0 0 1.357 1.357Z"/></g></svg>