<svg fill="currentColor" xmlns="http://www.w3.org/2000/svg" xml:space="preserve" id="Capa_1" x="0" y="0" version="1.1" viewBox="0 0 65 50"><path d="M12.5 28c1.7 0 3-1.4 3-3 0-1.7-1.4-3-3-3s-3 1.4-3 3c0 1.7 1.4 3 3 3zm0-4.1c.6 0 1.1.5 1.1 1.1 0 .6-.5 1.1-1.1 1.1-.6 0-1.1-.5-1.1-1.1.1-.6.5-1.1 1.1-1.1zM35.5 25c0-1.2-.8-2.4-2-2.7v-4.1h-2v4.1c-1.5.6-2.4 2.3-1.8 3.8.6 1.5 2.3 2.4 3.8 1.8 1.1-.5 2-1.7 2-2.9zm-3 1.1c-.6 0-1.1-.5-1.1-1.1s.5-1.1 1.1-1.1 1.1.5 1.1 1.1c0 .6-.5 1.1-1.1 1.1zM52.5 28c1.7 0 3-1.4 3-3 0-1.7-1.4-3-3-3s-3 1.4-3 3c-.1 1.7 1.3 3 3 3zm0-4.1c.6 0 1.1.5 1.1 1.1s-.5 1.1-1.1 1.1c-.6 0-1.1-.5-1.1-1.1 0-.6.5-1.1 1.1-1.1zM41.5 23.9h2v2h-2v-2zM45.5 23.9h2v2h-2v-2zM37.5 23.9h2v2h-2v-2zM25.5 23.9h2v2h-2v-2zM21.5 23.9h2v2h-2v-2zM17.6 23.9h2v2h-2v-2zM11.5 30h2v2h-2v-2zM51.4 30h2v2h-2v-2zM31.4 30h2v2h-2v-2zM17.6 34H7.5c-1.7 0-3 1.4-3 3v6c0 1.7 1.4 3 3 3h2v2h-2v2h10.1v-2h-2v-2h2c1.7 0 3-1.4 3-3v-6c-.1-1.6-1.4-3-3-3zM7.5 36h10.1c.6 0 1.1.5 1.1 1.1v4h-12v-4c-.1-.7.3-1.1.8-1.1zm6.1 12h-2v-2h2v2zm4-4.1H7.5c-.6 0-1.1-.5-1.1-1.1h12c.1.8-.4 1.1-.8 1.1zM37.5 34h-10c-1.7 0-3 1.4-3 3v6c0 1.7 1.4 3 3 3h2v2h-2v2h10.1v-2h-2v-2h2c1.7 0 3-1.4 3-3v-6c-.2-1.6-1.4-3-3.1-3zm-10 2h10.1c.6 0 1.1.5 1.1 1.1v4h-12v-4c-.1-.7.3-1.1.8-1.1zm6.1 12h-2v-2h2v2zm3.9-4.1h-10c-.6 0-1.1-.5-1.1-1.1h12c0 .8-.4 1.1-.9 1.1zM37.5 0h-10c-1.7 0-3 1.4-3 3v6c0 1.7 1.4 3 3 3h2v2h-2v2h10.1v-2h-2v-2h2c1.7 0 3-1.4 3-3V3c-.2-1.6-1.4-3-3.1-3zm-10 2h10.1c.6 0 1.1.5 1.1 1.1v4h-12V3c-.1-.6.3-1 .8-1zm6.1 12h-2v-2h2v2zm3.9-3.9h-10c-.6 0-1.1-.5-1.1-1.1h12c0 .6-.4 1.1-.9 1.1zM57.5 34H47.4c-1.7 0-3 1.4-3 3v6c0 1.7 1.4 3 3 3h2v2h-2v2h10.1v-2h-2v-2h2c1.7 0 3-1.4 3-3v-6c-.1-1.6-1.3-3-3-3zm-10.1 2h10.1c.6 0 1.1.5 1.1 1.1v4h-12v-4c-.1-.7.4-1.1.8-1.1zm6.1 12h-2v-2h2v2zm4-4.1H47.4c-.6 0-1.1-.5-1.1-1.1h12c.1.8-.3 1.1-.8 1.1z" class="st0"/></svg>